<svg width="156" height="30" viewBox="0 0 156 30" fill="none" xmlns="http://www.w3.org/2000/svg">
<g clip-path="url(#clip0_109_948)">
<path d="M50.0913 21.3901C48.3923 21.3901 46.9667 20.8252 45.834 19.6758C44.7013 18.5459 44.135 17.1239 44.135 15.4291C44.135 13.7343 44.7013 12.3317 45.834 11.1823C46.9667 10.0524 48.3923 9.46802 50.0913 9.46802C51.2044 9.46802 52.2199 9.74075 53.0987 10.2667C53.9971 10.7927 54.661 11.5135 55.0907 12.4291L53.4307 13.3836C53.1378 12.7797 52.7082 12.2927 52.1028 11.942C51.4974 11.5719 50.8334 11.3966 50.0718 11.3966C48.9391 11.3966 47.9822 11.7862 47.2206 12.5459C46.4589 13.3057 46.0684 14.2797 46.0684 15.4096C46.0684 16.5394 46.4589 17.494 47.2206 18.2537C47.9822 19.0135 48.9391 19.4031 50.0718 19.4031C50.8334 19.4031 51.4974 19.2278 52.1028 18.8771C52.7082 18.5265 53.1769 18.0394 53.4893 17.4356L55.1688 18.4096C54.6806 19.3057 53.9971 20.007 53.0792 20.5524C52.2004 21.1174 51.2044 21.3901 50.0913 21.3901Z" fill="white"/>
<path d="M59.1329 11.6891C59.7774 10.2865 60.9686 9.58521 62.6676 9.58521V11.6501C61.6912 11.6112 60.871 11.8644 60.168 12.4099C59.4649 12.9748 59.1329 13.8709 59.1329 15.0982V21.0787H57.1605V9.78001H59.1329V11.6891Z" fill="white"/>
<path d="M73.5455 19.6566C72.3738 20.8059 70.9677 21.3709 69.3077 21.3709C67.6478 21.3709 66.2417 20.8059 65.0895 19.6566C63.9373 18.5072 63.3514 17.1046 63.3514 15.4293C63.3514 13.754 63.9373 12.3514 65.0895 11.202C66.2417 10.0527 67.6478 9.48773 69.3077 9.48773C70.9677 9.48773 72.3738 10.0527 73.5455 11.202C74.7172 12.3514 75.2835 13.754 75.2835 15.4293C75.2835 17.1046 74.7172 18.5267 73.5455 19.6566ZM69.3077 19.4618C70.4404 19.4618 71.3973 19.0721 72.1589 18.3124C72.9206 17.5527 73.3111 16.5786 73.3111 15.4488C73.3111 14.2994 72.9206 13.3449 72.1589 12.5851C71.3973 11.8254 70.4404 11.4358 69.3077 11.4358C68.1946 11.4358 67.2377 11.8254 66.476 12.5851C65.7144 13.3449 65.3239 14.3189 65.3239 15.4488C65.3239 16.5981 65.7144 17.5527 66.476 18.3124C67.2377 19.0721 68.1946 19.4618 69.3077 19.4618Z" fill="white"/>
<path d="M90.516 9.78003H92.3713L89.0709 21.0787H87.0594L84.3645 12.6047L81.6695 21.0787H79.5604L76.2209 9.78003H78.291L80.7907 18.3709L83.4661 9.78003H85.419L88.0945 18.3709L90.516 9.78003Z" fill="white"/>
<path d="M103.542 5.25977H105.514V21.078H103.542V19.1299C102.565 20.6299 101.14 21.3702 99.2649 21.3702C97.6831 21.3702 96.3356 20.7857 95.2029 19.6364C94.0898 18.487 93.5234 17.0844 93.5234 15.4286C93.5234 13.7728 94.0898 12.3702 95.2029 11.2208C96.3161 10.0715 97.6636 9.48704 99.2649 9.48704C101.14 9.48704 102.565 10.2273 103.542 11.7273V5.25977ZM99.5188 19.4806C100.671 19.4806 101.628 19.0909 102.39 18.3117C103.151 17.5325 103.542 16.578 103.542 15.4286C103.542 14.2792 103.151 13.3247 102.39 12.5455C101.628 11.7663 100.651 11.3767 99.5188 11.3767C98.3861 11.3767 97.4292 11.7663 96.6676 12.5455C95.906 13.3247 95.5154 14.2792 95.5154 15.4286C95.5154 16.578 95.906 17.5325 96.6676 18.3117C97.4292 19.0909 98.3861 19.4806 99.5188 19.4806Z" fill="white"/>
<path d="M114.947 9.46802C116.47 9.46802 117.778 10.0524 118.852 11.2018C119.927 12.3511 120.473 13.7732 120.473 15.4485C120.473 17.1239 119.927 18.5265 118.852 19.6953C117.778 20.8446 116.47 21.4291 114.947 21.4291C113.365 21.4291 112.135 20.8836 111.275 19.7732V25.6368H108.346V9.77971H111.275V11.1044C112.135 10.0135 113.365 9.46802 114.947 9.46802ZM112.154 17.7278C112.74 18.3316 113.482 18.6239 114.4 18.6239C115.298 18.6239 116.06 18.3316 116.646 17.7278C117.251 17.1239 117.544 16.3641 117.544 15.4291C117.544 14.494 117.251 13.7342 116.646 13.1304C116.04 12.5265 115.298 12.2342 114.4 12.2342C113.502 12.2342 112.74 12.5265 112.154 13.1304C111.568 13.7342 111.275 14.494 111.275 15.4291C111.275 16.3641 111.568 17.1433 112.154 17.7278Z" fill="white"/>
<path d="M131.136 9.77923H134.065V21.0779H131.136V19.7532C130.257 20.8442 129.027 21.4091 127.445 21.4091C125.941 21.4091 124.633 20.8247 123.559 19.6753C122.485 18.526 121.938 17.1039 121.938 15.4286C121.938 13.7533 122.485 12.3507 123.559 11.1818C124.633 10.0325 125.941 9.44806 127.445 9.44806C129.027 9.44806 130.257 9.99351 131.136 11.1039V9.77923ZM125.746 17.7273C126.332 18.3312 127.074 18.6234 127.992 18.6234C128.91 18.6234 129.652 18.3312 130.238 17.7273C130.843 17.1234 131.136 16.3636 131.136 15.4286C131.136 14.4935 130.843 13.7338 130.238 13.1299C129.632 12.526 128.89 12.2338 127.992 12.2338C127.093 12.2338 126.332 12.526 125.746 13.1299C125.16 13.7338 124.867 14.4935 124.867 15.4286C124.867 16.3636 125.16 17.1429 125.746 17.7273Z" fill="white"/>
<path d="M139.318 12.994C139.318 13.2862 139.513 13.5394 139.924 13.7343C140.314 13.9291 140.802 14.0849 141.388 14.2407C141.955 14.3771 142.54 14.5719 143.107 14.7862C143.673 15.0005 144.161 15.3706 144.571 15.8771C144.962 16.3836 145.177 17.0265 145.177 17.8057C145.177 18.9745 144.747 19.8511 143.868 20.4745C143.009 21.0979 141.915 21.4096 140.607 21.4096C138.283 21.4096 136.701 20.5135 135.842 18.7213L138.381 17.2992C138.713 18.2732 139.455 18.7602 140.607 18.7602C141.642 18.7602 142.169 18.4291 142.169 17.7862C142.169 17.494 141.974 17.2407 141.564 17.0459C141.154 16.8511 140.685 16.6953 140.099 16.5394C139.533 16.3836 138.947 16.2083 138.381 15.9745C137.814 15.7407 137.326 15.3901 136.916 14.9031C136.506 14.4161 136.311 13.7927 136.311 13.0524C136.311 11.942 136.721 11.0654 137.541 10.4226C138.361 9.77971 139.396 9.46802 140.607 9.46802C141.525 9.46802 142.365 9.6823 143.126 10.0914C143.888 10.5005 144.474 11.1044 144.923 11.8641L142.423 13.2278C142.052 12.468 141.447 12.0784 140.607 12.0784C140.236 12.0784 139.924 12.1563 139.67 12.3317C139.455 12.4875 139.318 12.7213 139.318 12.994Z" fill="white"/>
<path d="M149.161 12.994C149.161 13.2862 149.356 13.5394 149.766 13.7343C150.157 13.9291 150.645 14.0849 151.231 14.2407C151.797 14.3771 152.383 14.5719 152.949 14.7862C153.516 15.0005 154.004 15.3706 154.414 15.8771C154.805 16.3836 155.019 17.0265 155.019 17.8057C155.019 18.9745 154.59 19.8511 153.711 20.4745C152.852 21.0979 151.758 21.4096 150.45 21.4096C148.126 21.4096 146.544 20.5135 145.685 18.7213L148.223 17.2992C148.555 18.2732 149.297 18.7602 150.45 18.7602C151.485 18.7602 152.012 18.4291 152.012 17.7862C152.012 17.494 151.817 17.2407 151.407 17.0459C150.996 16.8511 150.528 16.6953 149.942 16.5394C149.376 16.3836 148.79 16.2083 148.223 15.9745C147.657 15.7407 147.169 15.3901 146.759 14.9031C146.349 14.4161 146.153 13.7927 146.153 13.0524C146.153 11.942 146.563 11.0654 147.384 10.4226C148.204 9.77971 149.239 9.46802 150.45 9.46802C151.368 9.46802 152.207 9.6823 152.969 10.0914C153.73 10.5005 154.316 11.1044 154.766 11.8641L152.266 13.2278C151.895 12.468 151.289 12.0784 150.45 12.0784C150.079 12.0784 149.766 12.1563 149.512 12.3317C149.278 12.4875 149.161 12.7213 149.161 12.994Z" fill="white"/>
<path d="M6.99053 23.0842C6.971 23.0647 6.95147 23.0452 6.91241 23.0258C2.45985 18.5647 2.49891 11.3374 6.971 6.91537C11.2087 2.72706 17.8876 2.51277 22.3597 6.27251L24.8789 3.6816C19.0007 -1.44177 10.0761 -1.22749 4.45179 4.34394C-1.44591 10.1881 -1.46544 19.6751 4.37367 25.5582C4.3932 25.5777 4.41273 25.5972 4.45179 25.6167C10.037 31.1686 18.9031 31.4219 24.8203 26.3959L22.223 23.8634C17.7118 27.4673 11.1697 27.2141 6.99053 23.0842Z" fill="white"/>
<path d="M23.8644 22.227L26.4617 24.74C31.2463 19.1686 31.2853 10.9283 26.5398 5.3374L24.0011 7.92831C27.321 12.1361 27.2819 18.0971 23.8644 22.227Z" fill="url(#paint0_linear_109_948)"/>
</g>
<defs>
<linearGradient id="paint0_linear_109_948" x1="31.9895" y1="-15.7971" x2="24.7693" y2="25.2548" gradientUnits="userSpaceOnUse">
<stop offset="0.6061" stop-color="white"/>
<stop offset="1" stop-color="white" stop-opacity="0.2"/>
</linearGradient>
<clipPath id="clip0_109_948">
<rect width="156" height="30" fill="white"/>
</clipPath>
</defs>
</svg>
