<svg width="217" height="42" viewBox="0 0 217 42" fill="none" xmlns="http://www.w3.org/2000/svg">
<g id="Clip path group">
<mask id="mask0_3064_5773" style="mask-type:luminance" maskUnits="userSpaceOnUse" x="0" y="0" width="217" height="42">
<g id="clip0_1793_15055">
<path id="Vector" d="M216.724 0H0.276001V41.6329H216.724V0Z" fill="white"/>
</g>
</mask>
<g mask="url(#mask0_3064_5773)">
<g id="Group">
<path id="Vector_2" d="M69.7766 29.6841C67.4193 29.6841 65.4421 28.9 63.8701 27.3055C62.2981 25.7373 61.5127 23.7639 61.5127 21.4117C61.5127 19.0594 62.2981 17.1137 63.8701 15.5178C65.4421 13.9496 67.4193 13.1392 69.7766 13.1392C71.3209 13.1392 72.7306 13.518 73.9502 14.248C75.1961 14.978 76.1174 15.9771 76.7141 17.2483L74.4108 18.5736C74.0043 17.7354 73.4077 17.0596 72.5682 16.5725C71.7274 16.059 70.8061 15.8162 69.7503 15.8162C68.1782 15.8162 66.8504 16.356 65.7945 17.4107C64.7373 18.4654 64.1947 19.8171 64.1947 21.3852C64.1947 22.952 64.7373 24.2774 65.7945 25.3321C66.8504 26.3854 68.1782 26.9266 69.7503 26.9266C70.8061 26.9266 71.7274 26.6838 72.5682 26.1967C73.4077 25.7095 74.0584 25.0337 74.4913 24.1968L76.8223 25.5485C76.1452 26.7919 75.1961 27.7648 73.9224 28.5211C72.7028 29.3052 71.3209 29.6841 69.7766 29.6841Z" fill="white"/>
<path id="Vector_3" d="M82.3223 16.2211C83.2158 14.2741 84.8697 13.3013 87.227 13.3013V16.167C85.8715 16.1129 84.7337 16.464 83.7583 17.2217C82.7829 18.0058 82.3223 19.2493 82.3223 20.952V29.2522H79.5861V13.5719H82.3223V16.2211Z" fill="white"/>
<path id="Vector_4" d="M102.32 27.2791C100.694 28.8736 98.7432 29.6577 96.44 29.6577C94.1367 29.6577 92.1859 28.8736 90.5875 27.2791C88.9878 25.6832 88.1761 23.7376 88.1761 21.4117C88.1761 19.0872 88.9878 17.1401 90.5875 15.5456C92.1859 13.9511 94.1367 13.167 96.44 13.167C98.7432 13.167 100.694 13.9511 102.32 15.5456C103.945 17.1401 104.732 19.0872 104.732 21.4117C104.732 23.7376 103.945 25.7109 102.32 27.2791ZM96.44 27.0085C98.0106 27.0085 99.3384 26.4673 100.396 25.4126C101.453 24.3593 101.994 23.0076 101.994 21.4394C101.994 19.8435 101.453 18.5196 100.396 17.4649C99.3384 16.4102 98.0106 15.8703 96.44 15.8703C94.8957 15.8703 93.5679 16.4102 92.5106 17.4649C91.4533 18.5196 90.9122 19.8712 90.9122 21.4394C90.9122 23.0339 91.4533 24.3593 92.5106 25.4126C93.5679 26.4673 94.8957 27.0085 96.44 27.0085Z" fill="white"/>
<path id="Vector_5" d="M125.866 13.5723H128.44L123.861 29.2526H121.069L117.33 17.4927L113.591 29.2526H110.664L106.032 13.5723H108.904L112.372 25.4945L116.084 13.5723H118.794L122.505 25.4945L125.866 13.5723Z" fill="white"/>
<path id="Vector_6" d="M143.939 7.29932H146.675V29.2509H143.939V26.5476C142.584 28.6292 140.606 29.6561 138.005 29.6561C135.81 29.6561 133.941 28.8457 132.369 27.2498C130.825 25.6552 130.038 23.7082 130.038 21.4115C130.038 19.1133 130.825 17.1663 132.369 15.5718C133.913 13.9758 135.784 13.1654 138.005 13.1654C140.606 13.1654 142.584 14.1923 143.939 16.2739V7.29932ZM138.357 27.0333C139.956 27.0333 141.284 26.4935 142.341 25.4124C143.397 24.3299 143.939 23.006 143.939 21.4115C143.939 19.8156 143.397 18.4916 142.341 17.4092C141.284 16.3281 139.928 15.7883 138.357 15.7883C136.785 15.7883 135.457 16.3281 134.402 17.4092C133.344 18.4916 132.802 19.8156 132.802 21.4115C132.802 23.006 133.344 24.3299 134.402 25.4124C135.457 26.4935 136.785 27.0333 138.357 27.0333Z" fill="white"/>
<path id="Vector_7" d="M159.763 13.1392C161.877 13.1392 163.691 13.9496 165.182 15.5456C166.673 17.1401 167.431 19.1135 167.431 21.438C167.431 23.7639 166.673 25.7095 165.182 27.3318C163.691 28.9278 161.877 29.7382 159.763 29.7382C157.568 29.7382 155.862 28.9819 154.669 27.4401V35.5779H150.605V13.5722H154.669V15.4096C155.862 13.8955 157.568 13.1392 159.763 13.1392ZM155.888 24.6021C156.701 25.4403 157.731 25.8456 159.005 25.8456C160.25 25.8456 161.308 25.4403 162.121 24.6021C162.96 23.7639 163.367 22.7092 163.367 21.4116C163.367 20.1141 162.96 19.0594 162.121 18.2212C161.28 17.383 160.25 16.9777 159.005 16.9777C157.759 16.9777 156.701 17.383 155.888 18.2212C155.075 19.0594 154.669 20.1141 154.669 21.4116C154.669 22.7092 155.075 23.7903 155.888 24.6021Z" fill="white"/>
<path id="Vector_8" d="M182.226 13.5707H186.289V29.251H182.226V27.4122C181.006 28.9263 179.299 29.7103 177.104 29.7103C175.018 29.7103 173.203 28.8999 171.713 27.304C170.222 25.7094 169.463 23.7361 169.463 21.4116C169.463 19.0857 170.222 17.14 171.713 15.5177C173.203 13.9218 175.018 13.1113 177.104 13.1113C179.299 13.1113 181.006 13.8677 182.226 15.4095V13.5707ZM174.747 24.6006C175.56 25.4388 176.59 25.844 177.863 25.844C179.137 25.844 180.166 25.4388 180.98 24.6006C181.819 23.7624 182.226 22.7091 182.226 21.4116C182.226 20.1126 181.819 19.0593 180.98 18.2211C180.139 17.3829 179.109 16.9776 177.863 16.9776C176.616 16.9776 175.56 17.3829 174.747 18.2211C173.934 19.0593 173.527 20.1126 173.527 21.4116C173.527 22.7091 173.934 23.7901 174.747 24.6006Z" fill="white"/>
<path id="Vector_9" d="M193.578 18.0324C193.578 18.4376 193.849 18.7888 194.419 19.0594C194.96 19.33 195.637 19.5465 196.45 19.763C197.237 19.9517 198.048 20.2223 198.835 20.5193C199.62 20.8163 200.298 21.3312 200.866 22.0334C201.409 22.737 201.707 23.6279 201.707 24.7104C201.707 26.3313 201.111 27.5483 199.891 28.4129C198.699 29.2789 197.181 29.7118 195.366 29.7118C192.142 29.7118 189.947 28.467 188.755 25.9802L192.278 24.0068C192.739 25.3584 193.768 26.0343 195.366 26.0343C196.802 26.0343 197.534 25.5749 197.534 24.6826C197.534 24.2774 197.263 23.9263 196.694 23.6557C196.125 23.3851 195.475 23.1685 194.662 22.952C193.876 22.7369 193.063 22.4927 192.278 22.168C191.491 21.8446 190.814 21.3575 190.245 20.6817C189.676 20.0058 189.406 19.1413 189.406 18.1129C189.406 16.5725 189.975 15.3554 191.112 14.4645C192.25 13.5722 193.686 13.1392 195.366 13.1392C196.64 13.1392 197.806 13.4362 198.862 14.0038C199.919 14.5714 200.732 15.4096 201.355 16.4643L197.886 18.3572C197.371 17.3025 196.532 16.7612 195.366 16.7612C194.852 16.7612 194.419 16.8695 194.066 17.1137C193.768 17.3288 193.578 17.6536 193.578 18.0324Z" fill="white"/>
<path id="Vector_10" d="M207.235 18.0324C207.235 18.4376 207.506 18.7888 208.074 19.0594C208.617 19.33 209.294 19.5465 210.107 19.763C210.892 19.9517 211.705 20.2223 212.491 20.5193C213.277 20.8163 213.955 21.3312 214.523 22.0334C215.066 22.737 215.363 23.6279 215.363 24.7104C215.363 26.3313 214.768 27.5483 213.548 28.4129C212.356 29.2789 210.838 29.7118 209.023 29.7118C205.799 29.7118 203.604 28.467 202.412 25.9802L205.933 24.0068C206.394 25.3584 207.424 26.0343 209.023 26.0343C210.459 26.0343 211.191 25.5749 211.191 24.6826C211.191 24.2774 210.92 23.9263 210.351 23.6557C209.781 23.3851 209.132 23.1685 208.319 22.952C207.533 22.7369 206.72 22.4927 205.933 22.168C205.148 21.8446 204.471 21.3575 203.902 20.6817C203.333 20.0058 203.061 19.1413 203.061 18.1129C203.061 16.5725 203.63 15.3554 204.769 14.4645C205.907 13.5722 207.343 13.1392 209.023 13.1392C210.297 13.1392 211.461 13.4362 212.519 14.0038C213.574 14.5714 214.387 15.4096 215.012 16.4643L211.543 18.3572C211.028 17.3025 210.188 16.7612 209.023 16.7612C208.509 16.7612 208.074 16.8695 207.722 17.1137C207.397 17.3288 207.235 17.6536 207.235 18.0324Z" fill="white"/>
<path id="Vector_11" d="M9.97601 32.0348C9.94826 32.0084 9.92052 31.9807 9.86641 31.9543C3.68932 25.7635 3.74343 15.7328 9.94827 9.59611C15.8284 3.78416 25.0955 3.48717 31.3003 8.70377L34.7954 5.10947C26.6397 -2.00142 14.2564 -1.70446 6.45319 6.02815C-1.73021 14.1382 -1.75657 27.3039 6.34496 35.4681C6.37133 35.4959 6.39908 35.5223 6.45319 35.55C14.2023 43.2549 26.5038 43.606 34.7135 36.6311L31.1102 33.1159C24.8513 38.1173 15.7743 37.7663 9.97601 32.0348Z" fill="url(#paint0_linear_3064_5773)"/>
<path id="Vector_12" d="M33.387 30.8455L36.9917 34.333C43.6294 26.6018 43.6835 15.1652 37.0999 7.40625L33.5771 11.0019C38.1835 16.8417 38.1294 25.1141 33.387 30.8455Z" fill="url(#paint1_linear_3064_5773)"/>
</g>
</g>
</g>
<defs>
<linearGradient id="paint0_linear_3064_5773" x1="0.277484" y1="21.1742" x2="35.0882" y2="20.5652" gradientUnits="userSpaceOnUse">
<stop offset="0.1285" stop-color="#0077F2"/>
<stop offset="0.5276" stop-color="#0067F2"/>
<stop offset="1" stop-color="#004EF2"/>
</linearGradient>
<linearGradient id="paint1_linear_3064_5773" x1="44.6617" y1="-21.9227" x2="34.6388" y2="35.047" gradientUnits="userSpaceOnUse">
<stop offset="0.6061" stop-color="#0A50F7"/>
<stop offset="1" stop-color="#0A50F7" stop-opacity="0.2"/>
</linearGradient>
</defs>
</svg>
