<svg width="48" height="48" viewBox="0 0 48 48" fill="none" xmlns="http://www.w3.org/2000/svg">
<path d="M15.1197 32.9534C15.0972 32.9309 15.0747 32.9084 15.0297 32.8859C9.90186 27.7352 9.94684 19.3906 15.0972 14.2849C19.9776 9.44904 27.6693 9.20163 32.8197 13.5426L35.7209 10.5512C28.9513 4.63571 18.6732 4.88312 12.1959 11.3159C5.40377 18.0636 5.38128 29.0173 12.1059 35.8099C12.1284 35.8324 12.1509 35.8549 12.1959 35.8774C18.6282 42.2877 28.8389 42.5801 35.6535 36.7771L32.6622 33.8531C27.4669 38.0141 19.9326 37.7218 15.1197 32.9534Z" fill="url(#paint0_linear_2581_191)"/>
<path d="M34.5527 31.9634L37.544 34.8649C43.0541 28.4321 43.0991 18.9179 37.6339 12.4626L34.7102 15.4541C38.5335 20.3124 38.4886 27.195 34.5527 31.9634Z" fill="url(#paint1_linear_2581_191)"/>
<defs>
<linearGradient id="paint0_linear_2581_191" x1="7.07068" y1="23.9172" x2="35.9643" y2="23.4129" gradientUnits="userSpaceOnUse">
<stop offset="0.1285" stop-color="#0077F2"/>
<stop offset="0.5276" stop-color="#0067F2"/>
<stop offset="1" stop-color="#004EF2"/>
</linearGradient>
<linearGradient id="paint1_linear_2581_191" x1="43.9101" y1="-11.9393" x2="35.5537" y2="35.452" gradientUnits="userSpaceOnUse">
<stop offset="0.6061" stop-color="#0A50F7"/>
<stop offset="1" stop-color="#0A50F7" stop-opacity="0.2"/>
</linearGradient>
</defs>
</svg>
